<svg fill="none" xmlns="http://www.w3.org/2000/svg" viewBox="0 0 25 24">
  <g clip-path="url(#fVMznXY74drZa)">
    <path d="M22.688 10.5h-2.713l-4.094-4.06A1.501 1.501 0 0014.812 6H4.186a1.523 1.523 0 00-1.256.668L.127 10.834A.752.752 0 000 11.25v4.5c0 .398.16.78.443 1.06.284.282.668.44 1.07.44H3.12a2.998 2.998 0 001.075 1.626 3.041 3.041 0 003.71 0c.53-.409.909-.98 1.075-1.626h6.24a2.998 2.998 0 001.075 1.626 3.04 3.04 0 003.71 0c.53-.409.909-.98 1.076-1.626h1.607c.4 0 .785-.158 1.069-.44.284-.28.443-.662.443-1.06V12c0-.398-.16-.78-.443-1.06a1.519 1.519 0 00-1.07-.44zm-18.502-3h10.626l3.025 3H2.174l2.012-3zM6.05 18c-.3 0-.592-.088-.84-.253a1.488 1.488 0 01-.23-2.308 1.517 1.517 0 011.649-.325c.276.114.512.306.679.553a1.491 1.491 0 01-.188 1.894A1.522 1.522 0 016.05 18zm12.1 0c-.3 0-.592-.088-.84-.253a1.489 1.489 0 01-.23-2.308 1.517 1.517 0 011.649-.325c.276.114.512.306.679.553a1.491 1.491 0 01-.189 1.894A1.518 1.518 0 0118.15 18zm4.538-2.25H21.08a2.998 2.998 0 00-1.076-1.626 3.04 3.04 0 00-3.71 0c-.53.409-.909.98-1.076 1.626H8.98a2.998 2.998 0 00-1.075-1.626 3.041 3.041 0 00-3.71 0c-.53.409-.909.98-1.075 1.626H1.512V12h21.175v3.75z" fill="#000"/>
  </g>
  <defs>
    <clipPath id="fVMznXY74drZa">
      <path fill="#fff" d="M0 0h24.2v24H0z"/>
    </clipPath>
  </defs>
</svg>
