<svg fill="none" xmlns="http://www.w3.org/2000/svg" viewBox="0 0 39 39">
  <path fill="#fff" d="M0 0h39v39H0z"/>
  <path d="M30.692 17.211c-.153-.22-.353-.4-.585-.523a1.588 1.588 0 00-.75-.188h-1.643v-1.714c0-.455-.173-.891-.481-1.213a1.609 1.609 0 00-1.162-.502h-7.118l-2.848-2.228a1.612 1.612 0 00-.985-.343H9.643c-.436 0-.854.18-1.162.502A1.753 1.753 0 008 12.214v15.429c0 .227.087.445.24.606a.81.81 0 00.581.251h18.39a.8.8 0 00.48-.162.855.855 0 00.3-.424l2.925-9.158a1.79 1.79 0 00-.224-1.545zM15.12 12.214l3.066 2.4a.799.799 0 00.492.172h7.393V16.5H12.7a1.6 1.6 0 00-.96.323c-.28.21-.49.508-.598.85L9.643 22.36V12.214h5.477z" fill="#002400"/>
</svg>
