<svg fill="none" xmlns="http://www.w3.org/2000/svg" viewBox="0 0 70 36">
  <g clip-path="url(#Dt5OT5RjzuTwa)" fill="#000">
    <path d="M67.245 17.081l-.038.038c.26-.706.781-.967 1.227-.967.632 0 1.19.483 1.19 1.19 0 .148 0 .334-.075.557-1.3 3.345-4.051 5.055-6.727 5.315-1.227 2.082-3.234 3.606-6.096 3.606-4.088 0-5.91-3.234-5.91-6.765 0-4.349 2.75-9.18 7.36-9.18a6.55 6.55 0 012.564.52c2.082.78 3.42 3.494 3.42 6.393 0 .929-.075 1.858-.298 2.75 1.376-.483 2.676-1.598 3.383-3.457zm-7.769-3.159v-.037c-.817 0-1.3 1.078-1.3 2.379 0 1.895 1.04 3.642 2.676 4.274.26-.817.371-1.747.371-2.825 0-2.081-.631-3.79-1.746-3.79zm-2.713 10.184c1.04 0 2.082-.446 2.9-1.375-2.417-1.078-3.94-3.605-3.94-6.021 0-.818.148-1.673.371-2.416-1.486 1.226-2.341 3.642-2.341 5.761 0 2.75 1.3 4.051 3.01 4.051z"/>
    <path d="M51.39 17.081l-.037.038c.26-.706.706-1.004 1.152-1.004.632 0 1.264.558 1.264 1.264a1.3 1.3 0 01-.112.52c-1.45 3.531-3.605 7.657-7.061 10.073l-.075.743C46.112 33.175 43.845 36 40.983 36c-2.156 0-3.42-1.487-3.42-3.233 0-3.16 3.234-4.312 6.245-6.245.074-.78.111-1.672.148-2.676-1.486 1.636-3.085 2.305-4.497 2.305-2.825 0-5.13-2.305-5.13-5.836 0-5.426 3.57-8.995 7.546-8.995h.037c2.714 0 5.613 1.45 5.613 4.052 0 .855-.372 5.5-.67 9.106 2.008-1.896 3.68-4.98 4.535-7.397zm-11.522 6.393c1.375 0 3.234-.854 4.386-5.054.186-.93.297-1.747.26-2.714-.223-1.003-1.078-1.598-2.304-1.598-2.528 0-4.944 2.416-4.944 6.096 0 2.23 1.041 3.27 2.602 3.27zm1.412 9.813h.038c.78 0 1.635-.52 2.193-3.866-1.636.967-3.16 1.933-3.16 3.085 0 .483.372.78.93.78z"/>
    <path d="M34.982 17.081l-.037.038c.26-.706.78-.967 1.227-.967.632 0 1.189.483 1.189 1.19 0 .148 0 .334-.074.557-1.301 3.345-4.052 5.055-6.728 5.315-1.226 2.082-3.233 3.606-6.095 3.606-4.089 0-5.91-3.234-5.91-6.765 0-4.349 2.75-9.18 7.36-9.18a6.55 6.55 0 012.564.52c2.081.78 3.42 3.494 3.42 6.393 0 .929-.075 1.858-.298 2.75 1.375-.483 2.676-1.598 3.382-3.457zm-7.768-3.159v-.037c-.818 0-1.3 1.078-1.3 2.379 0 1.895 1.04 3.642 2.675 4.274.26-.817.372-1.747.372-2.825 0-2.081-.632-3.79-1.747-3.79zm-2.713 10.184c1.04 0 2.081-.446 2.899-1.375-2.416-1.078-3.94-3.605-3.94-6.021 0-.818.149-1.673.372-2.416-1.487 1.226-2.342 3.642-2.342 5.761 0 2.75 1.301 4.051 3.01 4.051z"/>
    <path d="M20.443 15.908c-.52 0-.966.26-1.264.967-.966 2.453-2.973 6.616-5.018 6.616-1.287 0-2.283-.291-3.29-.586-1.028-.3-2.066-.604-3.437-.604-.483 0-1.152.075-1.784.186 1.903-2.596 2.614-5.74 3.303-11.682a13.24 13.24 0 01-3.122-.564C5.01 17.778 4.077 20.651.67 23.491A1.83 1.83 0 000 24.903c0 .818.706 1.524 1.598 1.524.298 0 .632-.111.967-.26 1.895-.855 3.047-1.078 4.46-1.078.898 0 1.973.257 3.123.532 1.326.317 2.752.657 4.125.657 3.01 0 4.98-2.936 7.173-8.623.112-.186.15-.409.15-.595 0-.706-.558-1.152-1.153-1.152z"/>
    <path fill-rule="evenodd" clip-rule="evenodd" d="M6.02 8.703c.673.235 1.724.508 3.086.59h.223c4.2 0 6.95-2.603 6.95-5.725C16.28 1.561 14.72 0 12.527 0 9.59 0 7.547 2.007 6.505 5.984c-1.3-.706-2.193-1.97-2.639-3.568-.223-.78-.706-1.264-1.375-1.264-.818 0-1.338.632-1.338 1.487 0 2.527 1.97 4.943 4.87 6.059l-.002.005zm3.532-2.124c.558-2.565 1.45-3.791 2.64-3.791.631 0 1.04.371 1.04 1.04 0 1.227-1.3 2.677-3.68 2.75z"/>
  </g>
  <defs>
    <clipPath id="Dt5OT5RjzuTwa">
      <path fill="#fff" d="M0 0h70v36H0z"/>
    </clipPath>
  </defs>
</svg>
