<svg fill="none" xmlns="http://www.w3.org/2000/svg" viewBox="0 0 12 12">
  <g clip-path="url(#jtdfoL20o0WDa)">
    <path d="M11.25 5.25H9.905l-2.03-2.03a.743.743 0 00-.53-.22h-5.27a.75.75 0 00-.622.334L.063 5.417A.378.378 0 000 5.625v2.25a.75.75 0 00.75.75h.797a1.5 1.5 0 002.906 0h3.094a1.5 1.5 0 002.906 0h.797a.75.75 0 00.75-.75V6a.75.75 0 00-.75-.75zm-9.174-1.5h5.269l1.5 1.5H1.078l.998-1.5zM3 9a.75.75 0 110-1.5A.75.75 0 013 9zm6 0a.75.75 0 110-1.5A.75.75 0 019 9zm2.25-1.125h-.797a1.5 1.5 0 00-2.906 0H4.453a1.5 1.5 0 00-2.906 0H.75V6h10.5v1.875z" fill="#999"/>
  </g>
  <defs>
    <clipPath id="jtdfoL20o0WDa">
      <path fill="#fff" d="M0 0h12v12H0z"/>
    </clipPath>
  </defs>
</svg>
