<svg fill="none" xmlns="http://www.w3.org/2000/svg" viewBox="0 0 13 13">
  <g clip-path="url(#dTao8zONrYzAa)">
    <path d="M6.03 1.018a.316.316 0 01.584 0l1.306 3.14c.045.11.148.184.266.194l3.39.271c.28.023.394.373.181.556L9.174 7.39a.316.316 0 00-.102.314l.79 3.308a.316.316 0 01-.473.343L6.487 9.583a.316.316 0 00-.33 0l-2.903 1.773a.316.316 0 01-.472-.343l.79-3.308a.316.316 0 00-.102-.314L.886 5.18a.316.316 0 01.18-.556l3.391-.271a.316.316 0 00.267-.194l1.306-3.14z" fill="#1C3300"/>
  </g>
  <defs>
    <clipPath id="dTao8zONrYzAa">
      <path fill="#fff" d="M0 0h12.644v12.644H0z"/>
    </clipPath>
  </defs>
</svg>
